# Blender v2.79 (sub 0) OBJ File: ''
# www.blender.org
mtllib Wedge.mtl
o Cube
v 1.000000 -1.000000 -1.000000
v 1.000000 -1.000000 1.000000
v -1.000000 -1.000000 1.000000
v -1.000000 -1.000000 -1.000000
v 0.999999 0.500000 1.000001
v -1.000000 0.500000 1.000000
vn 0.0000 -1.0000 0.0000
vn -0.0000 -0.0000 1.0000
vn -1.0000 -0.0000 -0.0000
vn 1.0000 0.0000 0.0000
vn 0.0000 0.7071 -0.7071
usemtl Material
s off
f 1//1 2//1 3//1 4//1
f 2//2 5//2 6//2 3//2
f 4//3 3//3 6//3
f 2//4 1//4 5//4
f 4//5 6//5 5//5 1//5
